<?xml version="1.0" standalone="no"?>
<!DOCTYPE svg PUBLIC "-//W3C//DTD SVG 20010904//EN"
 "http://www.w3.org/TR/2001/REC-SVG-20010904/DTD/svg10.dtd">
<svg version="1.0" xmlns="http://www.w3.org/2000/svg"
 width="1107.000000pt" height="1280.000000pt" viewBox="0 0 1107.000000 1280.000000"
 preserveAspectRatio="xMidYMid meet">
<metadata>
Created by potrace 1.15, written by Peter Selinger 2001-2017
</metadata>
<g transform="translate(0.000000,1280.000000) scale(0.100000,-0.100000)"
fill="#000000" stroke="none">
<path d="M4865 12794 c-1000 -35 -1517 -89 -1794 -185 -91 -31 -120 -47 -164
-88 -79 -72 -101 -197 -127 -701 -43 -851 -41 -3626 5 -6430 8 -498 15 -933
15 -966 l0 -61 -102 29 c-156 44 -563 144 -743 184 -88 19 -180 39 -205 44
-179 40 -542 97 -760 121 -178 19 -486 17 -595 -5 -182 -36 -305 -111 -363
-220 -24 -45 -27 -61 -26 -146 0 -80 6 -110 33 -190 142 -411 595 -1057 1207
-1720 171 -185 532 -544 699 -696 826 -750 1679 -1290 2435 -1544 935 -313
1759 -227 2765 289 570 293 1089 660 1705 1205 195 173 731 713 904 911 631
722 1023 1326 1087 1676 37 204 -82 356 -329 420 -133 34 -488 42 -693 15
-394 -52 -662 -100 -1054 -190 -156 -35 -583 -144 -669 -170 l-49 -15 7 352
c38 1894 58 5409 37 6362 -25 1136 -49 1362 -154 1451 -149 126 -610 203
-1492 250 -256 13 -1357 26 -1580 18z"/>
</g>
</svg>
